<svg width="20" height="20" viewBox="0 0 20 20" fill="none" xmlns="http://www.w3.org/2000/svg">
<path fill-rule="evenodd" clip-rule="evenodd" d="M0.833328 10.0002C0.833328 4.93755 4.93738 0.833496 9.99999 0.833496C10.221 0.833496 10.433 0.921293 10.5892 1.07757L18.9226 9.41091C19.0789 9.56719 19.1667 9.77915 19.1667 10.0002C19.1667 15.0628 15.0626 19.1668 9.99999 19.1668C4.93738 19.1668 0.833328 15.0628 0.833328 10.0002ZM8.90558 2.57944C5.28219 3.10919 2.49999 6.22977 2.49999 10.0002C2.49999 14.1423 5.85786 17.5002 9.99999 17.5002C13.7974 17.5002 16.9356 14.678 17.4317 11.0166C16.9772 11.0745 16.4082 11.1163 15.777 11.0934C14.2214 11.0368 12.1996 10.5808 10.6393 8.90054C9.09703 7.23959 8.74722 5.33887 8.7762 3.88975C8.78605 3.39716 8.83942 2.95237 8.90558 2.57944ZM10.4813 3.32663L16.576 9.42133C16.3454 9.43346 16.0974 9.43724 15.8376 9.4278C14.5286 9.3802 13.0087 9.00285 11.8607 7.76645C10.6946 6.51073 10.4194 5.07812 10.4425 3.92308C10.4467 3.71273 10.4609 3.51284 10.4813 3.32663Z" fill="white"/>
</svg>
