<svg width="29" height="28" viewBox="0 0 29 28" fill="none" xmlns="http://www.w3.org/2000/svg">
<path d="M29 3.03333C28.6795 2.76889 25.4437 0 20.6053 0C15.7516 0 12.5311 2.76889 12.2106 3.03333L20.6053 14L29 3.03333Z" fill="black"/>
<path d="M25.9474 19.46C24.0547 19.46 22.2079 19.1489 20.4984 18.5733C19.9642 18.3867 19.3537 18.5267 18.9416 18.9467L15.5837 22.3689C11.2642 20.1133 7.72316 16.52 5.52526 12.1178L8.88316 8.69556C9.31053 8.26 9.43263 7.65333 9.26474 7.10889C8.7 5.36667 8.39474 3.5 8.39474 1.55556C8.39474 0.7 7.70789 0 6.86842 0H1.52632C0.686842 0 0 0.7 0 1.55556C0 16.1622 11.6153 28 25.9474 28C26.7868 28 27.4737 27.3 27.4737 26.4444V21.0156C27.4737 20.16 26.7868 19.46 25.9474 19.46Z" fill="black"/>
</svg>
