<svg width="24" height="18" viewBox="0 0 24 18" fill="none" xmlns="http://www.w3.org/2000/svg">
<path fill-rule="evenodd" clip-rule="evenodd" d="M6.42689 1.70418C6.33001 1.7987 6.22597 1.90228 6.08704 2.04204C6.08704 2.04204 3.79819 4.33243 3.79054 4.33904C3.71953 4.4064 3.66044 4.464 3.59918 4.52489C3.57103 4.55303 3.54599 4.57779 3.4926 4.63031C3.44669 4.67547 3.42544 4.69643 3.39898 4.72276L1.32949 6.79458C1.28507 6.84066 1.24696 6.87946 1.19796 6.92868L1.14216 6.98477C1.07898 7.04807 1.02899 7.09959 0.958337 7.17327C0.796273 7.33319 0.631937 7.51404 0.477194 7.7037C0.333414 7.85701 0.217337 8.03422 0.13423 8.22746L0.112272 8.28592C-0.037424 8.74935 -0.037424 9.24814 0.112272 9.71157L0.135196 9.77226C0.218933 9.96502 0.335628 10.1416 0.479953 10.2941C0.634042 10.4835 0.798258 10.6643 0.971883 10.836C1.00841 10.8754 1.06223 10.9303 1.13412 11.0022C1.18377 11.0519 1.20513 11.0733 1.23174 11.1001C1.26613 11.1348 1.29585 11.1651 1.32344 11.1937L3.39838 13.2725C3.50119 13.3753 3.54721 13.4209 3.62954 13.5013C3.69722 13.5682 3.73728 13.6071 3.81145 13.6756L6.08908 15.9565C6.2598 16.1272 6.33638 16.2035 6.43291 16.2983C6.55839 16.4238 6.6411 16.5049 6.77031 16.6312C6.81898 16.6825 6.83722 16.7014 6.86218 16.7247C7.15377 17.0177 7.50942 17.2766 7.89887 17.4754C8.28871 17.6717 8.70203 17.8081 9.12859 17.8818C9.52826 17.9476 9.92708 17.9827 10.3268 17.9878C10.4964 17.9915 10.6665 17.9938 10.8345 17.9945L11.2348 17.9945H18.6804C18.835 17.9945 18.9881 17.9923 19.2005 17.9877C19.5979 17.9828 20.0008 17.9475 20.3992 17.882C20.8343 17.8069 21.2505 17.6692 21.6396 17.4726C22.034 17.2731 22.3939 17.0123 22.706 16.6997C23.0167 16.3878 23.2765 16.03 23.4766 15.6387C23.6748 15.2443 23.8119 14.8274 23.8857 14.3971C23.9517 13.9937 23.9868 13.5912 23.9916 13.1878C23.9947 13.0887 23.9961 13.0014 23.9984 12.8071L23.9999 12.6827L24 12.0696V5.28226L23.9988 5.17489C23.9976 5.05514 23.9969 5.00285 23.9958 4.93574C23.9947 4.87281 23.9934 4.81508 23.9917 4.75946C23.9872 4.37158 23.9525 3.97262 23.8879 3.57796C23.8137 3.14594 23.6777 2.7325 23.4836 2.34562C23.2824 1.95254 23.0244 1.59745 22.7163 1.28846C22.408 0.978054 22.0509 0.718335 21.6594 0.520144C21.2732 0.324765 20.8602 0.187962 20.434 0.114104C20.0324 0.0487976 19.6336 0.0139582 19.2337 0.0087226C19.0527 0.00433857 18.8856 0.00199972 18.7251 0.00199972C18.563 0.000336838 18.4288 0 18.1278 0H11.4324C11.1336 0 10.9986 0.000338888 10.8292 0.00203305C10.6756 0.00199972 10.5091 0.00432365 10.3181 0.00885283C9.92591 0.0140027 9.52768 0.0488484 9.13365 0.112975C8.70028 0.188084 8.28701 0.324739 7.90044 0.519645C7.50808 0.719533 7.15223 0.978807 6.84369 1.28905C6.8294 1.30311 6.81893 1.31412 6.73158 1.40737C6.62321 1.51012 6.52355 1.60718 6.42689 1.70418ZM3.83562 4.30125L3.83808 4.29933C3.83509 4.30158 3.83301 4.30315 3.83044 4.30528L3.83562 4.30125ZM7.0321 15.0142L4.7301 12.7088C4.7301 12.7088 4.68418 12.667 4.6794 12.663C4.64388 12.6291 4.61333 12.5992 4.53701 12.5238C4.48192 12.4703 4.43906 12.4278 4.34148 12.3302L2.27485 10.2599C2.25061 10.2347 2.21685 10.2002 2.17855 10.1616C2.15011 10.1329 2.12713 10.1099 2.07679 10.0595C2.01351 9.99624 1.96807 9.94984 1.92571 9.90487C1.76389 9.74431 1.62689 9.59274 1.49874 9.43384L1.45482 9.38459C1.42091 9.35015 1.39252 9.31077 1.37058 9.26784C1.32054 9.09148 1.32067 8.90462 1.37096 8.72831C1.39293 8.68461 1.42148 8.64447 1.45566 8.60933L1.49604 8.56384C1.6249 8.4046 1.76248 8.25262 1.90814 8.1086C1.98619 8.02755 2.0313 7.98106 2.06541 7.94648C2.10856 7.90353 2.10863 7.90346 2.14257 7.86942L2.14258 7.86941L2.14273 7.86926C2.19696 7.81479 2.24032 7.77064 2.28195 7.72728L4.34074 5.66635C4.36334 5.64387 4.38248 5.62499 4.43659 5.57176C4.48336 5.52575 4.51044 5.49899 4.54045 5.46897C4.58689 5.42282 4.63256 5.37818 4.67742 5.33517C4.68727 5.32694 4.69875 5.3163 4.73142 5.28601L4.73142 5.286L7.03141 2.98301C7.16718 2.84644 7.26702 2.74704 7.36476 2.6516C7.45874 2.55737 7.54946 2.46903 7.64538 2.37804C7.66665 2.3582 7.67936 2.34491 7.73807 2.28261L7.78449 2.23358C7.99797 2.01897 8.23903 1.84333 8.50313 1.70878C8.76981 1.57433 9.05758 1.47917 9.35461 1.42767C9.67683 1.37526 10.0094 1.34616 10.3427 1.34175C10.5309 1.33733 10.6872 1.33515 10.8358 1.33515C11.006 1.33348 11.138 1.33315 11.4324 1.33315H18.1278C18.4244 1.33315 18.5555 1.33348 18.7184 1.33511C18.874 1.33515 19.0307 1.33734 19.209 1.34162C19.5503 1.34613 19.8835 1.37523 20.2132 1.42883C20.5025 1.47899 20.7893 1.57402 21.0575 1.70966C21.3215 1.84332 21.5626 2.01863 21.7713 2.22878C21.9825 2.44068 22.1587 2.68312 22.2944 2.94831C22.4274 3.21317 22.5221 3.5012 22.5732 3.79842C22.626 4.12178 22.655 4.45411 22.6589 4.78721C22.6606 4.84879 22.6618 4.90102 22.6628 4.95866C22.6639 5.02194 22.6645 5.07236 22.6658 5.18923L22.6669 5.29026L22.6668 5.87985V12.668L22.6653 12.7913C22.6631 12.9778 22.6618 13.0598 22.6588 13.1601C22.6546 13.5086 22.6253 13.8445 22.5709 14.1768C22.5202 14.4722 22.4244 14.7634 22.2875 15.036C22.1526 15.2998 21.9745 15.5449 21.762 15.7583C21.5505 15.9701 21.306 16.1474 21.0382 16.2828C20.7672 16.4197 20.4771 16.5157 20.1777 16.5674C19.8507 16.6211 19.5147 16.6506 19.1778 16.6547C18.968 16.6593 18.8234 16.6613 18.6804 16.6613H10.8372C10.68 16.6607 10.5179 16.6585 10.3499 16.6548C10.0108 16.6505 9.67877 16.6213 9.35034 16.5672C9.05856 16.5168 8.77082 16.4218 8.50166 16.2863C8.2403 16.1529 7.9987 15.977 7.78897 15.7667C7.77641 15.7544 7.75901 15.7364 7.73698 15.7132L7.73425 15.7103C7.68177 15.6549 7.66993 15.6425 7.65752 15.6306L7.64253 15.6165C7.56632 15.545 7.49185 15.4719 7.37139 15.3515C7.27441 15.2561 7.19968 15.1817 7.0321 15.0142ZM11.8127 12.525C11.7587 12.5786 11.6939 12.6223 11.6208 12.6526C11.3973 12.7451 11.1401 12.6939 10.9691 12.5229C10.8566 12.4107 10.7934 12.2584 10.7934 12.0995C10.7934 11.9406 10.8566 11.7882 10.9691 11.676V11.6774C11.0013 11.6452 11.0365 11.6173 11.074 11.5938L13.6688 8.99574L10.9691 6.29912L10.9778 6.29049C10.924 6.23634 10.8802 6.17144 10.8498 6.09818C10.7573 5.87475 10.8085 5.61757 10.9795 5.44657C11.0917 5.33363 11.2444 5.27013 11.4036 5.27013C11.5628 5.27013 11.7155 5.33363 11.8277 5.44657H11.825C11.854 5.47555 11.8795 5.507 11.9015 5.54034L14.5132 8.15032L17.1321 5.52815C17.1524 5.49886 17.1755 5.47098 17.2016 5.44491C17.3726 5.27389 17.6298 5.22273 17.8532 5.31527C18.0767 5.40782 18.2223 5.62584 18.2223 5.86768C18.2223 6.02851 18.1579 6.1788 18.049 6.28866L18.0558 6.29546L15.359 8.9956L17.9688 11.6037C18.0009 11.6253 18.0311 11.65 18.0588 11.6777L18.0575 11.679C18.2285 11.85 18.2797 12.1072 18.1871 12.3306C18.0946 12.5541 17.8766 12.6998 17.6347 12.6998C17.4739 12.6998 17.3236 12.6353 17.2137 12.5265L17.2086 12.5316L14.5148 9.84082L11.8234 12.5356L11.8127 12.525Z" fill="black"/>
</svg>
