<svg width="20" height="20" viewBox="0 0 20 20" fill="none" xmlns="http://www.w3.org/2000/svg">
<path fill-rule="evenodd" clip-rule="evenodd" d="M18.5059 1.4941C18.7323 1.72047 18.809 2.05649 18.7032 2.35865L13.1616 18.192C13.0487 18.5145 12.7504 18.7354 12.409 18.7493C12.0676 18.7633 11.7523 18.5674 11.6135 18.2551L8.577 11.423L1.74489 8.38653C1.43266 8.24776 1.23677 7.93245 1.2507 7.59105C1.26463 7.24965 1.48555 6.95135 1.80805 6.83847L17.6414 1.29681C17.9435 1.19105 18.2796 1.26774 18.5059 1.4941ZM10.2023 10.9762L12.2828 15.6575L15.9238 5.25476L10.2023 10.9762ZM14.7453 4.07625L4.34257 7.71719L9.02378 9.79773L14.7453 4.07625Z" fill="white"/>
</svg>
