<svg width="50" height="59" viewBox="0 0 50 59" fill="none" xmlns="http://www.w3.org/2000/svg">
<g filter="url(#filter0_d_309_5806)">
<path fill-rule="evenodd" clip-rule="evenodd" d="M16.2295 13.3776C16.576 12.7774 17.3434 12.5718 17.9436 12.9183L24.5408 16.7272L28.3496 10.13C28.6961 9.52985 29.4635 9.32423 30.0637 9.67072C30.6638 10.0172 30.8695 10.7846 30.523 11.3848L26.7141 17.982L33.3113 21.7908C33.9114 22.1373 34.117 22.9047 33.7705 23.5049C33.4241 24.105 32.6566 24.3107 32.0565 23.9642L25.4593 20.1553L21.6504 26.7525C21.3039 27.3526 20.5365 27.5582 19.9364 27.2117C19.3362 26.8652 19.1306 26.0978 19.4771 25.4977L23.286 18.9005L16.6888 15.0916C16.0887 14.7451 15.883 13.9777 16.2295 13.3776Z" fill="#F27121" stroke="#F27121" stroke-width="2" stroke-linecap="round" stroke-linejoin="round"/>
</g>
<defs>
<filter id="filter0_d_309_5806" x="-8.49835" y="0" width="66.9969" height="66.9969" filterUnits="userSpaceOnUse" color-interpolation-filters="sRGB">
<feFlood flood-opacity="0" result="BackgroundImageFix"/>
<feColorMatrix in="SourceAlpha" type="matrix" values="0 0 0 0 0 0 0 0 0 0 0 0 0 0 0 0 0 0 127 0" result="hardAlpha"/>
<feOffset dy="15"/>
<feGaussianBlur stdDeviation="7.5"/>
<feColorMatrix type="matrix" values="0 0 0 0 0.541176 0 0 0 0 0.137255 0 0 0 0 0.529412 0 0 0 0.2 0"/>
<feBlend mode="normal" in2="BackgroundImageFix" result="effect1_dropShadow_309_5806"/>
<feBlend mode="normal" in="SourceGraphic" in2="effect1_dropShadow_309_5806" result="shape"/>
</filter>
</defs>
</svg>
