<svg width="24" height="24" viewBox="0 0 24 24" fill="none" xmlns="http://www.w3.org/2000/svg">
<g id="15">
<g id="Group 1685">
<path id="Vector" d="M12.12 15.6C14.0033 15.6 15.53 14.0733 15.53 12.19C15.53 10.3067 14.0033 8.78003 12.12 8.78003C10.2367 8.78003 8.70996 10.3067 8.70996 12.19C8.70996 14.0733 10.2367 15.6 12.12 15.6Z" stroke="#888888" stroke-width="1.2" stroke-miterlimit="10" stroke-linecap="round" stroke-linejoin="round"/>
<path id="Vector_2" d="M12.1201 17.78C17.3778 17.78 21.6401 15.2772 21.6401 12.19C21.6401 9.1027 17.3778 6.59998 12.1201 6.59998C6.86235 6.59998 2.6001 9.1027 2.6001 12.19C2.6001 15.2772 6.86235 17.78 12.1201 17.78Z" stroke="#888888" stroke-width="1.2" stroke-miterlimit="10" stroke-linecap="round" stroke-linejoin="round"/>
<path id="Vector 82" d="M4 4L20 20" stroke="white" stroke-width="2.5" stroke-linecap="round"/>
<path id="Vector 81" d="M4 4L20 20" stroke="#888888" stroke-width="1.2" stroke-linecap="round"/>
</g>
</g>
</svg>
